<?xml version="1.0" encoding="UTF-8" standalone="no"?>
<!DOCTYPE svg PUBLIC "-//W3C//DTD SVG 1.1//EN"
 "http://www.w3.org/Graphics/SVG/1.1/DTD/svg11.dtd">
<!-- Generated by graphviz version 2.40.1 (20161225.0304)
 -->
<!-- Title: %3 Pages: 1 -->
<svg width="515pt" height="368pt"
 viewBox="0.00 0.00 515.46 368.00" xmlns="http://www.w3.org/2000/svg" xmlns:xlink="http://www.w3.org/1999/xlink">
<g id="graph0" class="graph" transform="scale(1 1) rotate(0) translate(4 364)">
<title>%3</title>
<polygon fill="#ffffff" stroke="transparent" points="-4,4 -4,-364 511.4614,-364 511.4614,4 -4,4"/>
<!-- csv_in -->
<g id="node1" class="node">
<title>csv_in</title>
<ellipse fill="none" stroke="#000000" cx="77.3431" cy="-342" rx="31.3957" ry="18"/>
<text text-anchor="middle" x="77.3431" y="-338.3" font-family="Times,serif" font-size="14.00" fill="#000000">CSV</text>
</g>
<!-- dbcrossbar -->
<g id="node3" class="node">
<title>dbcrossbar</title>
<ellipse fill="none" stroke="#000000" cx="253.7307" cy="-180" rx="63.0888" ry="18"/>
<text text-anchor="middle" x="253.7307" y="-176.3" font-family="Times,serif" font-size="14.00" fill="#000000">dbcrossbar</text>
</g>
<!-- csv_in&#45;&gt;dbcrossbar -->
<g id="edge1" class="edge">
<title>csv_in&#45;&gt;dbcrossbar</title>
<path fill="none" stroke="#000000" d="M106.8911,-336.1329C122.218,-332.0421 140.622,-325.4028 154.6863,-315 193.6994,-286.1435 223.9479,-237.5169 240.2734,-207.1739"/>
<polygon fill="#000000" stroke="#000000" points="243.5329,-208.4945 245.0781,-198.0129 237.3338,-205.2431 243.5329,-208.4945"/>
</g>
<!-- csv_out -->
<g id="node2" class="node">
<title>csv_out</title>
<ellipse fill="none" stroke="#000000" cx="430.1182" cy="-342" rx="31.3957" ry="18"/>
<text text-anchor="middle" x="430.1182" y="-338.3" font-family="Times,serif" font-size="14.00" fill="#000000">CSV</text>
</g>
<!-- dbcrossbar&#45;&gt;csv_out -->
<g id="edge2" class="edge">
<title>dbcrossbar&#45;&gt;csv_out</title>
<path fill="none" stroke="#000000" d="M262.3832,-198.0129C277.0688,-226.7601 309.5397,-283.0205 352.7751,-315 363.9825,-323.2897 377.9458,-329.1896 390.9117,-333.3144"/>
<polygon fill="#000000" stroke="#000000" points="389.9901,-336.6914 400.5702,-336.1329 391.9511,-329.9717 389.9901,-336.6914"/>
</g>
<!-- postgres_out -->
<g id="node5" class="node">
<title>postgres_out</title>
<ellipse fill="none" stroke="#000000" cx="430.1182" cy="-288" rx="66.8882" ry="18"/>
<text text-anchor="middle" x="430.1182" y="-284.3" font-family="Times,serif" font-size="14.00" fill="#000000">PostgreSQL</text>
</g>
<!-- dbcrossbar&#45;&gt;postgres_out -->
<g id="edge4" class="edge">
<title>dbcrossbar&#45;&gt;postgres_out</title>
<path fill="none" stroke="#000000" d="M271.2872,-197.6284C290.0576,-215.6466 321.3811,-243.4111 352.7751,-261 359.5799,-264.8125 367.0188,-268.2306 374.5078,-271.2484"/>
<polygon fill="#000000" stroke="#000000" points="373.3859,-274.5664 383.9768,-274.8564 375.8784,-268.0251 373.3859,-274.5664"/>
</g>
<!-- bigquery_out -->
<g id="node7" class="node">
<title>bigquery_out</title>
<ellipse fill="none" stroke="#000000" cx="430.1182" cy="-234" rx="55.4913" ry="18"/>
<text text-anchor="middle" x="430.1182" y="-230.3" font-family="Times,serif" font-size="14.00" fill="#000000">BigQuery</text>
</g>
<!-- dbcrossbar&#45;&gt;bigquery_out -->
<g id="edge6" class="edge">
<title>dbcrossbar&#45;&gt;bigquery_out</title>
<path fill="none" stroke="#000000" d="M296.8799,-193.2099C322.0215,-200.9068 353.8389,-210.6475 380.0759,-218.6798"/>
<polygon fill="#000000" stroke="#000000" points="379.2462,-222.0861 389.8328,-221.6668 381.2954,-215.3928 379.2462,-222.0861"/>
</g>
<!-- s3_out -->
<g id="node9" class="node">
<title>s3_out</title>
<ellipse fill="none" stroke="#000000" cx="430.1182" cy="-180" rx="27" ry="18"/>
<text text-anchor="middle" x="430.1182" y="-176.3" font-family="Times,serif" font-size="14.00" fill="#000000">S3</text>
</g>
<!-- dbcrossbar&#45;&gt;s3_out -->
<g id="edge8" class="edge">
<title>dbcrossbar&#45;&gt;s3_out</title>
<path fill="none" stroke="#000000" d="M316.9124,-180C342.228,-180 370.5409,-180 392.5192,-180"/>
<polygon fill="#000000" stroke="#000000" points="392.7588,-183.5001 402.7588,-180 392.7587,-176.5001 392.7588,-183.5001"/>
</g>
<!-- gs_out -->
<g id="node11" class="node">
<title>gs_out</title>
<ellipse fill="none" stroke="#000000" cx="430.1182" cy="-126" rx="77.1866" ry="18"/>
<text text-anchor="middle" x="430.1182" y="-122.3" font-family="Times,serif" font-size="14.00" fill="#000000">Cloud Storage</text>
</g>
<!-- dbcrossbar&#45;&gt;gs_out -->
<g id="edge10" class="edge">
<title>dbcrossbar&#45;&gt;gs_out</title>
<path fill="none" stroke="#000000" d="M296.8799,-166.7901C319.9298,-159.7335 348.5911,-150.959 373.4189,-143.3582"/>
<polygon fill="#000000" stroke="#000000" points="374.544,-146.6742 383.0813,-140.4001 372.4948,-139.9808 374.544,-146.6742"/>
</g>
<!-- redshift_out -->
<g id="node13" class="node">
<title>redshift_out</title>
<ellipse fill="none" stroke="#000000" cx="430.1182" cy="-72" rx="51.1914" ry="18"/>
<text text-anchor="middle" x="430.1182" y="-68.3" font-family="Times,serif" font-size="14.00" fill="#000000">RedShift</text>
</g>
<!-- dbcrossbar&#45;&gt;redshift_out -->
<g id="edge12" class="edge">
<title>dbcrossbar&#45;&gt;redshift_out</title>
<path fill="none" stroke="#000000" d="M271.2872,-162.3716C290.0576,-144.3534 321.3811,-116.5889 352.7751,-99 361.2472,-94.2534 370.7022,-90.118 380.013,-86.6055"/>
<polygon fill="#000000" stroke="#000000" points="381.3791,-89.8341 389.6165,-83.1711 379.0219,-83.243 381.3791,-89.8341"/>
</g>
<!-- etc_out -->
<g id="node15" class="node">
<title>etc_out</title>
<ellipse fill="none" stroke="#000000" cx="430.1182" cy="-18" rx="27" ry="18"/>
<text text-anchor="middle" x="430.1182" y="-14.3" font-family="Times,serif" font-size="14.00" fill="#000000">...</text>
</g>
<!-- dbcrossbar&#45;&gt;etc_out -->
<g id="edge14" class="edge">
<title>dbcrossbar&#45;&gt;etc_out</title>
<path fill="none" stroke="#000000" d="M262.3832,-161.9871C277.0688,-133.2399 309.5397,-76.9795 352.7751,-45 364.9205,-36.0165 380.3023,-29.8396 394.144,-25.6869"/>
<polygon fill="#000000" stroke="#000000" points="395.1679,-29.0353 403.8823,-23.0096 393.3123,-22.2857 395.1679,-29.0353"/>
</g>
<!-- postgres_in -->
<g id="node4" class="node">
<title>postgres_in</title>
<ellipse fill="none" stroke="#000000" cx="77.3431" cy="-288" rx="66.8882" ry="18"/>
<text text-anchor="middle" x="77.3431" y="-284.3" font-family="Times,serif" font-size="14.00" fill="#000000">PostgreSQL</text>
</g>
<!-- postgres_in&#45;&gt;dbcrossbar -->
<g id="edge3" class="edge">
<title>postgres_in&#45;&gt;dbcrossbar</title>
<path fill="none" stroke="#000000" d="M123.4846,-274.8564C134.0477,-271.0468 145.0083,-266.4222 154.6863,-261 182.2787,-245.541 209.8166,-222.2216 228.8252,-204.5675"/>
<polygon fill="#000000" stroke="#000000" points="231.3061,-207.0387 236.1742,-197.6284 226.5003,-201.949 231.3061,-207.0387"/>
</g>
<!-- bigquery_in -->
<g id="node6" class="node">
<title>bigquery_in</title>
<ellipse fill="none" stroke="#000000" cx="77.3431" cy="-234" rx="55.4913" ry="18"/>
<text text-anchor="middle" x="77.3431" y="-230.3" font-family="Times,serif" font-size="14.00" fill="#000000">BigQuery</text>
</g>
<!-- bigquery_in&#45;&gt;dbcrossbar -->
<g id="edge5" class="edge">
<title>bigquery_in&#45;&gt;dbcrossbar</title>
<path fill="none" stroke="#000000" d="M117.81,-221.6113C142.5399,-214.0404 174.4343,-204.2761 201.1115,-196.109"/>
<polygon fill="#000000" stroke="#000000" points="202.1437,-199.4535 210.681,-193.1794 200.0945,-192.7601 202.1437,-199.4535"/>
</g>
<!-- s3_in -->
<g id="node8" class="node">
<title>s3_in</title>
<ellipse fill="none" stroke="#000000" cx="77.3431" cy="-180" rx="27" ry="18"/>
<text text-anchor="middle" x="77.3431" y="-176.3" font-family="Times,serif" font-size="14.00" fill="#000000">S3</text>
</g>
<!-- s3_in&#45;&gt;dbcrossbar -->
<g id="edge7" class="edge">
<title>s3_in&#45;&gt;dbcrossbar</title>
<path fill="none" stroke="#000000" d="M104.5171,-180C124.8256,-180 153.6011,-180 180.4715,-180"/>
<polygon fill="#000000" stroke="#000000" points="180.6549,-183.5001 190.6549,-180 180.6549,-176.5001 180.6549,-183.5001"/>
</g>
<!-- gs_in -->
<g id="node10" class="node">
<title>gs_in</title>
<ellipse fill="none" stroke="#000000" cx="77.3431" cy="-126" rx="77.1866" ry="18"/>
<text text-anchor="middle" x="77.3431" y="-122.3" font-family="Times,serif" font-size="14.00" fill="#000000">Cloud Storage</text>
</g>
<!-- gs_in&#45;&gt;dbcrossbar -->
<g id="edge9" class="edge">
<title>gs_in&#45;&gt;dbcrossbar</title>
<path fill="none" stroke="#000000" d="M124.6118,-140.471C148.1105,-147.665 176.5899,-156.3838 200.8165,-163.8006"/>
<polygon fill="#000000" stroke="#000000" points="199.9773,-167.204 210.5638,-166.7847 202.0264,-160.5106 199.9773,-167.204"/>
</g>
<!-- redshift_in -->
<g id="node12" class="node">
<title>redshift_in</title>
<ellipse fill="none" stroke="#000000" cx="77.3431" cy="-72" rx="51.1914" ry="18"/>
<text text-anchor="middle" x="77.3431" y="-68.3" font-family="Times,serif" font-size="14.00" fill="#000000">RedShift</text>
</g>
<!-- redshift_in&#45;&gt;dbcrossbar -->
<g id="edge11" class="edge">
<title>redshift_in&#45;&gt;dbcrossbar</title>
<path fill="none" stroke="#000000" d="M117.8449,-83.1711C130.0719,-87.3188 143.2712,-92.6046 154.6863,-99 182.2787,-114.459 209.8166,-137.7784 228.8252,-155.4325"/>
<polygon fill="#000000" stroke="#000000" points="226.5003,-158.051 236.1742,-162.3716 231.3061,-152.9613 226.5003,-158.051"/>
</g>
<!-- etc_in -->
<g id="node14" class="node">
<title>etc_in</title>
<ellipse fill="none" stroke="#000000" cx="77.3431" cy="-18" rx="27" ry="18"/>
<text text-anchor="middle" x="77.3431" y="-14.3" font-family="Times,serif" font-size="14.00" fill="#000000">...</text>
</g>
<!-- etc_in&#45;&gt;dbcrossbar -->
<g id="edge13" class="edge">
<title>etc_in&#45;&gt;dbcrossbar</title>
<path fill="none" stroke="#000000" d="M103.579,-23.0096C119.5015,-27.0065 139.5929,-33.8361 154.6863,-45 193.6994,-73.8565 223.9479,-122.4831 240.2734,-152.8261"/>
<polygon fill="#000000" stroke="#000000" points="237.3338,-154.7569 245.0781,-161.9871 243.5329,-151.5055 237.3338,-154.7569"/>
</g>
</g>
</svg>
