<?xml version="1.0" encoding="UTF-8" standalone="no"?>
<!DOCTYPE svg PUBLIC "-//W3C//DTD SVG 1.1//EN"
 "http://www.w3.org/Graphics/SVG/1.1/DTD/svg11.dtd">
<!-- Generated by graphviz version 2.40.1 (20161225.0304)
 -->
<!-- Title: %3 Pages: 1 -->
<svg width="459pt" height="206pt"
 viewBox="0.00 0.00 458.66 206.00" xmlns="http://www.w3.org/2000/svg" xmlns:xlink="http://www.w3.org/1999/xlink">
<g id="graph0" class="graph" transform="scale(1 1) rotate(0) translate(4 202)">
<title>%3</title>
<polygon fill="#ffffff" stroke="transparent" points="-4,4 -4,-202 454.6632,-202 454.6632,4 -4,4"/>
<!-- src1 -->
<g id="node1" class="node">
<title>src1</title>
<ellipse fill="none" stroke="#000000" cx="116.3397" cy="-180" rx="116.1796" ry="18"/>
<text text-anchor="middle" x="116.3397" y="-176.3" font-family="Times,serif" font-size="14.00" fill="#000000">s3://example/file_1.csv</text>
</g>
<!-- dest1 -->
<g id="node2" class="node">
<title>dest1</title>
<ellipse fill="none" stroke="#000000" cx="359.6713" cy="-180" rx="90.9839" ry="18"/>
<text text-anchor="middle" x="359.6713" y="-176.3" font-family="Times,serif" font-size="14.00" fill="#000000">csv:out/file_1.csv</text>
</g>
<!-- src1&#45;&gt;dest1 -->
<g id="edge1" class="edge">
<title>src1&#45;&gt;dest1</title>
<path fill="none" stroke="#000000" d="M233.0165,-180C241.5145,-180 250.045,-180 258.4419,-180"/>
<polygon fill="#000000" stroke="#000000" points="258.6067,-183.5001 268.6067,-180 258.6066,-176.5001 258.6067,-183.5001"/>
</g>
<!-- src2 -->
<g id="node3" class="node">
<title>src2</title>
<ellipse fill="none" stroke="#000000" cx="116.3397" cy="-126" rx="116.1796" ry="18"/>
<text text-anchor="middle" x="116.3397" y="-122.3" font-family="Times,serif" font-size="14.00" fill="#000000">s3://example/file_2.csv</text>
</g>
<!-- src1&#45;&gt;src2 -->
<!-- dest2 -->
<g id="node4" class="node">
<title>dest2</title>
<ellipse fill="none" stroke="#000000" cx="359.6713" cy="-126" rx="90.9839" ry="18"/>
<text text-anchor="middle" x="359.6713" y="-122.3" font-family="Times,serif" font-size="14.00" fill="#000000">csv:out/file_2.csv</text>
</g>
<!-- src2&#45;&gt;dest2 -->
<g id="edge2" class="edge">
<title>src2&#45;&gt;dest2</title>
<path fill="none" stroke="#000000" d="M233.0165,-126C241.5145,-126 250.045,-126 258.4419,-126"/>
<polygon fill="#000000" stroke="#000000" points="258.6067,-129.5001 268.6067,-126 258.6066,-122.5001 258.6067,-129.5001"/>
</g>
<!-- src3 -->
<g id="node5" class="node">
<title>src3</title>
<ellipse fill="none" stroke="#000000" cx="116.3397" cy="-72" rx="116.1796" ry="18"/>
<text text-anchor="middle" x="116.3397" y="-68.3" font-family="Times,serif" font-size="14.00" fill="#000000">s3://example/file_3.csv</text>
</g>
<!-- src2&#45;&gt;src3 -->
<!-- dest3 -->
<g id="node6" class="node">
<title>dest3</title>
<ellipse fill="none" stroke="#000000" cx="359.6713" cy="-72" rx="90.9839" ry="18"/>
<text text-anchor="middle" x="359.6713" y="-68.3" font-family="Times,serif" font-size="14.00" fill="#000000">csv:out/file_3.csv</text>
</g>
<!-- src3&#45;&gt;dest3 -->
<g id="edge3" class="edge">
<title>src3&#45;&gt;dest3</title>
<path fill="none" stroke="#000000" d="M233.0165,-72C241.5145,-72 250.045,-72 258.4419,-72"/>
<polygon fill="#000000" stroke="#000000" points="258.6067,-75.5001 268.6067,-72 258.6066,-68.5001 258.6067,-75.5001"/>
</g>
<!-- src4 -->
<g id="node8" class="node">
<title>src4</title>
<ellipse fill="none" stroke="#000000" cx="116.3397" cy="-18" rx="116.1796" ry="18"/>
<text text-anchor="middle" x="116.3397" y="-14.3" font-family="Times,serif" font-size="14.00" fill="#000000">s3://example/file_4.csv</text>
</g>
<!-- src3&#45;&gt;src4 -->
<!-- dest4 -->
<g id="node7" class="node">
<title>dest4</title>
<ellipse fill="none" stroke="#000000" cx="359.6713" cy="-18" rx="90.9839" ry="18"/>
<text text-anchor="middle" x="359.6713" y="-14.3" font-family="Times,serif" font-size="14.00" fill="#000000">csv:out/file_4.csv</text>
</g>
<!-- src4&#45;&gt;dest4 -->
<g id="edge4" class="edge">
<title>src4&#45;&gt;dest4</title>
<path fill="none" stroke="#000000" d="M233.0165,-18C241.5145,-18 250.045,-18 258.4419,-18"/>
<polygon fill="#000000" stroke="#000000" points="258.6067,-21.5001 268.6067,-18 258.6066,-14.5001 258.6067,-21.5001"/>
</g>
</g>
</svg>
