<?xml version="1.0" encoding="UTF-8" standalone="no"?>
<!DOCTYPE svg PUBLIC "-//W3C//DTD SVG 1.1//EN"
 "http://www.w3.org/Graphics/SVG/1.1/DTD/svg11.dtd">
<!-- Generated by graphviz version 2.40.1 (20161225.0304)
 -->
<!-- Title: %3 Pages: 1 -->
<svg width="393pt" height="260pt"
 viewBox="0.00 0.00 393.27 260.00" xmlns="http://www.w3.org/2000/svg" xmlns:xlink="http://www.w3.org/1999/xlink">
<g id="graph0" class="graph" transform="scale(1 1) rotate(0) translate(4 256)">
<title>%3</title>
<polygon fill="#ffffff" stroke="transparent" points="-4,4 -4,-256 389.2722,-256 389.2722,4 -4,4"/>
<!-- csv_in -->
<g id="node1" class="node">
<title>csv_in</title>
<ellipse fill="none" stroke="#000000" cx="53.9452" cy="-234" rx="27.8951" ry="18"/>
<text text-anchor="middle" x="53.9452" y="-230.3" font-family="Times,serif" font-size="14.00" fill="#000000">CSV</text>
</g>
<!-- dbcrossbar -->
<g id="node3" class="node">
<title>dbcrossbar</title>
<ellipse fill="none" stroke="#000000" cx="192.6361" cy="-126" rx="48.9926" ry="18"/>
<text text-anchor="middle" x="192.6361" y="-122.3" font-family="Times,serif" font-size="14.00" fill="#000000">dbcrossbar</text>
</g>
<!-- csv_in&#45;&gt;dbcrossbar -->
<g id="edge1" class="edge">
<title>csv_in&#45;&gt;dbcrossbar</title>
<path fill="none" stroke="#000000" d="M77.3781,-224.1424C87.1858,-219.5496 98.4705,-213.632 107.8904,-207 131.1251,-190.642 154.223,-168.034 170.4224,-150.8589"/>
<polygon fill="#000000" stroke="#000000" points="173.1162,-153.1015 177.3557,-143.3919 167.9865,-148.3385 173.1162,-153.1015"/>
</g>
<!-- csv_out -->
<g id="node2" class="node">
<title>csv_out</title>
<ellipse fill="none" stroke="#000000" cx="331.327" cy="-234" rx="27.8951" ry="18"/>
<text text-anchor="middle" x="331.327" y="-230.3" font-family="Times,serif" font-size="14.00" fill="#000000">CSV</text>
</g>
<!-- dbcrossbar&#45;&gt;csv_out -->
<g id="edge2" class="edge">
<title>dbcrossbar&#45;&gt;csv_out</title>
<path fill="none" stroke="#000000" d="M207.9165,-143.3919C223.9773,-160.9625 250.5886,-188.1367 277.3818,-207 284.0052,-211.6631 291.5505,-215.9731 298.856,-219.7176"/>
<polygon fill="#000000" stroke="#000000" points="297.3736,-222.8888 307.8941,-224.1424 300.4516,-216.6018 297.3736,-222.8888"/>
</g>
<!-- postgres_out -->
<g id="node5" class="node">
<title>postgres_out</title>
<ellipse fill="none" stroke="#000000" cx="331.327" cy="-180" rx="53.8905" ry="18"/>
<text text-anchor="middle" x="331.327" y="-176.3" font-family="Times,serif" font-size="14.00" fill="#000000">PostgreSQL</text>
</g>
<!-- dbcrossbar&#45;&gt;postgres_out -->
<g id="edge4" class="edge">
<title>dbcrossbar&#45;&gt;postgres_out</title>
<path fill="none" stroke="#000000" d="M226.2093,-139.0719C244.3974,-146.1535 267.1066,-154.9955 286.759,-162.6472"/>
<polygon fill="#000000" stroke="#000000" points="285.5392,-165.9282 296.1277,-166.295 288.079,-159.4052 285.5392,-165.9282"/>
</g>
<!-- bigquery_out -->
<g id="node7" class="node">
<title>bigquery_out</title>
<ellipse fill="none" stroke="#000000" cx="331.327" cy="-126" rx="45.4919" ry="18"/>
<text text-anchor="middle" x="331.327" y="-122.3" font-family="Times,serif" font-size="14.00" fill="#000000">BigQuery</text>
</g>
<!-- dbcrossbar&#45;&gt;bigquery_out -->
<g id="edge6" class="edge">
<title>dbcrossbar&#45;&gt;bigquery_out</title>
<path fill="none" stroke="#000000" d="M241.5333,-126C252.5199,-126 264.2585,-126 275.5036,-126"/>
<polygon fill="#000000" stroke="#000000" points="275.6563,-129.5001 285.6562,-126 275.6562,-122.5001 275.6563,-129.5001"/>
</g>
<!-- s3_out -->
<g id="node9" class="node">
<title>s3_out</title>
<ellipse fill="none" stroke="#000000" cx="331.327" cy="-72" rx="27" ry="18"/>
<text text-anchor="middle" x="331.327" y="-68.3" font-family="Times,serif" font-size="14.00" fill="#000000">S3</text>
</g>
<!-- dbcrossbar&#45;&gt;s3_out -->
<g id="edge8" class="edge">
<title>dbcrossbar&#45;&gt;s3_out</title>
<path fill="none" stroke="#000000" d="M226.2093,-112.9281C248.0388,-104.4287 276.3809,-93.3935 298.1341,-84.9238"/>
<polygon fill="#000000" stroke="#000000" points="299.5695,-88.121 307.6182,-81.2312 297.0297,-81.5979 299.5695,-88.121"/>
</g>
<!-- etc_out -->
<g id="node11" class="node">
<title>etc_out</title>
<ellipse fill="none" stroke="#000000" cx="331.327" cy="-18" rx="27" ry="18"/>
<text text-anchor="middle" x="331.327" y="-14.3" font-family="Times,serif" font-size="14.00" fill="#000000">...</text>
</g>
<!-- dbcrossbar&#45;&gt;etc_out -->
<g id="edge10" class="edge">
<title>dbcrossbar&#45;&gt;etc_out</title>
<path fill="none" stroke="#000000" d="M207.9165,-108.6081C223.9773,-91.0375 250.5886,-63.8633 277.3818,-45 284.1256,-40.2521 291.8252,-35.8703 299.2543,-32.0787"/>
<polygon fill="#000000" stroke="#000000" points="300.9714,-35.1354 308.4275,-27.6084 297.9049,-28.8428 300.9714,-35.1354"/>
</g>
<!-- postgres_in -->
<g id="node4" class="node">
<title>postgres_in</title>
<ellipse fill="none" stroke="#000000" cx="53.9452" cy="-180" rx="53.8905" ry="18"/>
<text text-anchor="middle" x="53.9452" y="-176.3" font-family="Times,serif" font-size="14.00" fill="#000000">PostgreSQL</text>
</g>
<!-- postgres_in&#45;&gt;dbcrossbar -->
<g id="edge3" class="edge">
<title>postgres_in&#45;&gt;dbcrossbar</title>
<path fill="none" stroke="#000000" d="M89.3016,-166.2338C107.5641,-159.1232 130.0049,-150.3858 149.3026,-142.8721"/>
<polygon fill="#000000" stroke="#000000" points="150.7305,-146.0722 158.7792,-139.1824 148.1907,-139.5492 150.7305,-146.0722"/>
</g>
<!-- bigquery_in -->
<g id="node6" class="node">
<title>bigquery_in</title>
<ellipse fill="none" stroke="#000000" cx="53.9452" cy="-126" rx="45.4919" ry="18"/>
<text text-anchor="middle" x="53.9452" y="-122.3" font-family="Times,serif" font-size="14.00" fill="#000000">BigQuery</text>
</g>
<!-- bigquery_in&#45;&gt;dbcrossbar -->
<g id="edge5" class="edge">
<title>bigquery_in&#45;&gt;dbcrossbar</title>
<path fill="none" stroke="#000000" d="M99.7422,-126C110.495,-126 122.1049,-126 133.354,-126"/>
<polygon fill="#000000" stroke="#000000" points="133.5483,-129.5001 143.5483,-126 133.5482,-122.5001 133.5483,-129.5001"/>
</g>
<!-- s3_in -->
<g id="node8" class="node">
<title>s3_in</title>
<ellipse fill="none" stroke="#000000" cx="53.9452" cy="-72" rx="27" ry="18"/>
<text text-anchor="middle" x="53.9452" y="-68.3" font-family="Times,serif" font-size="14.00" fill="#000000">S3</text>
</g>
<!-- s3_in&#45;&gt;dbcrossbar -->
<g id="edge7" class="edge">
<title>s3_in&#45;&gt;dbcrossbar</title>
<path fill="none" stroke="#000000" d="M77.4722,-81.1604C97.1025,-88.8035 125.5993,-99.8989 149.3339,-109.1401"/>
<polygon fill="#000000" stroke="#000000" points="148.2489,-112.4735 158.8374,-112.8403 150.7887,-105.9505 148.2489,-112.4735"/>
</g>
<!-- etc_in -->
<g id="node10" class="node">
<title>etc_in</title>
<ellipse fill="none" stroke="#000000" cx="53.9452" cy="-18" rx="27" ry="18"/>
<text text-anchor="middle" x="53.9452" y="-14.3" font-family="Times,serif" font-size="14.00" fill="#000000">...</text>
</g>
<!-- etc_in&#45;&gt;dbcrossbar -->
<g id="edge9" class="edge">
<title>etc_in&#45;&gt;dbcrossbar</title>
<path fill="none" stroke="#000000" d="M76.8447,-27.6084C86.7748,-32.2354 98.2992,-38.2474 107.8904,-45 131.1251,-61.358 154.223,-83.966 170.4224,-101.1411"/>
<polygon fill="#000000" stroke="#000000" points="167.9865,-103.6615 177.3557,-108.6081 173.1162,-98.8985 167.9865,-103.6615"/>
</g>
</g>
</svg>
