<?xml version="1.0" encoding="UTF-8" standalone="no"?>
<!DOCTYPE svg PUBLIC "-//W3C//DTD SVG 1.1//EN"
 "http://www.w3.org/Graphics/SVG/1.1/DTD/svg11.dtd">
<!-- Generated by graphviz version 2.40.1 (20161225.0304)
 -->
<!-- Title: %3 Pages: 1 -->
<svg width="474pt" height="260pt"
 viewBox="0.00 0.00 473.87 260.00" xmlns="http://www.w3.org/2000/svg" xmlns:xlink="http://www.w3.org/1999/xlink">
<g id="graph0" class="graph" transform="scale(1 1) rotate(0) translate(4 256)">
<title>%3</title>
<polygon fill="#ffffff" stroke="transparent" points="-4,4 -4,-256 469.8651,-256 469.8651,4 -4,4"/>
<!-- csv_in -->
<g id="node1" class="node">
<title>csv_in</title>
<ellipse fill="none" stroke="#000000" cx="66.9441" cy="-234" rx="31.3957" ry="18"/>
<text text-anchor="middle" x="66.9441" y="-230.3" font-family="Times,serif" font-size="14.00" fill="#000000">CSV</text>
</g>
<!-- dbcrossbar -->
<g id="node3" class="node">
<title>dbcrossbar</title>
<ellipse fill="none" stroke="#000000" cx="232.9325" cy="-126" rx="63.0888" ry="18"/>
<text text-anchor="middle" x="232.9325" y="-122.3" font-family="Times,serif" font-size="14.00" fill="#000000">dbcrossbar</text>
</g>
<!-- csv_in&#45;&gt;dbcrossbar -->
<g id="edge1" class="edge">
<title>csv_in&#45;&gt;dbcrossbar</title>
<path fill="none" stroke="#000000" d="M94.2109,-225.1311C106.7173,-220.5348 121.4861,-214.3407 133.8881,-207 161.1056,-190.8901 188.6857,-167.6438 207.8055,-150.1828"/>
<polygon fill="#000000" stroke="#000000" points="210.2465,-152.6926 215.2035,-143.3289 205.4891,-147.5576 210.2465,-152.6926"/>
</g>
<!-- csv_out -->
<g id="node2" class="node">
<title>csv_out</title>
<ellipse fill="none" stroke="#000000" cx="398.921" cy="-234" rx="31.3957" ry="18"/>
<text text-anchor="middle" x="398.921" y="-230.3" font-family="Times,serif" font-size="14.00" fill="#000000">CSV</text>
</g>
<!-- dbcrossbar&#45;&gt;csv_out -->
<g id="edge2" class="edge">
<title>dbcrossbar&#45;&gt;csv_out</title>
<path fill="none" stroke="#000000" d="M250.6616,-143.3289C269.5727,-161.1027 301.0094,-188.6705 331.9769,-207 341.3754,-212.5629 352.1329,-217.4673 362.2351,-221.5168"/>
<polygon fill="#000000" stroke="#000000" points="361.0639,-224.8162 371.6541,-225.1311 363.5717,-218.2808 361.0639,-224.8162"/>
</g>
<!-- postgres_out -->
<g id="node5" class="node">
<title>postgres_out</title>
<ellipse fill="none" stroke="#000000" cx="398.921" cy="-180" rx="66.8882" ry="18"/>
<text text-anchor="middle" x="398.921" y="-176.3" font-family="Times,serif" font-size="14.00" fill="#000000">PostgreSQL</text>
</g>
<!-- dbcrossbar&#45;&gt;postgres_out -->
<g id="edge4" class="edge">
<title>dbcrossbar&#45;&gt;postgres_out</title>
<path fill="none" stroke="#000000" d="M274.8184,-139.6265C296.5836,-146.7072 323.3951,-155.4296 346.5214,-162.9532"/>
<polygon fill="#000000" stroke="#000000" points="345.5893,-166.3304 356.1816,-166.0959 347.7549,-159.6738 345.5893,-166.3304"/>
</g>
<!-- bigquery_out -->
<g id="node7" class="node">
<title>bigquery_out</title>
<ellipse fill="none" stroke="#000000" cx="398.921" cy="-126" rx="55.4913" ry="18"/>
<text text-anchor="middle" x="398.921" y="-122.3" font-family="Times,serif" font-size="14.00" fill="#000000">BigQuery</text>
</g>
<!-- dbcrossbar&#45;&gt;bigquery_out -->
<g id="edge6" class="edge">
<title>dbcrossbar&#45;&gt;bigquery_out</title>
<path fill="none" stroke="#000000" d="M296.1592,-126C308.3271,-126 321.097,-126 333.3378,-126"/>
<polygon fill="#000000" stroke="#000000" points="333.4708,-129.5001 343.4708,-126 333.4707,-122.5001 333.4708,-129.5001"/>
</g>
<!-- s3_out -->
<g id="node9" class="node">
<title>s3_out</title>
<ellipse fill="none" stroke="#000000" cx="398.921" cy="-72" rx="27" ry="18"/>
<text text-anchor="middle" x="398.921" y="-68.3" font-family="Times,serif" font-size="14.00" fill="#000000">S3</text>
</g>
<!-- dbcrossbar&#45;&gt;s3_out -->
<g id="edge8" class="edge">
<title>dbcrossbar&#45;&gt;s3_out</title>
<path fill="none" stroke="#000000" d="M274.8184,-112.3735C302.6281,-103.3264 338.6762,-91.5991 364.7494,-83.1168"/>
<polygon fill="#000000" stroke="#000000" points="366.1359,-86.3464 374.5626,-79.9244 363.9703,-79.6898 366.1359,-86.3464"/>
</g>
<!-- etc_out -->
<g id="node11" class="node">
<title>etc_out</title>
<ellipse fill="none" stroke="#000000" cx="398.921" cy="-18" rx="27" ry="18"/>
<text text-anchor="middle" x="398.921" y="-14.3" font-family="Times,serif" font-size="14.00" fill="#000000">...</text>
</g>
<!-- dbcrossbar&#45;&gt;etc_out -->
<g id="edge10" class="edge">
<title>dbcrossbar&#45;&gt;etc_out</title>
<path fill="none" stroke="#000000" d="M250.6616,-108.6711C269.5727,-90.8973 301.0094,-63.3295 331.9769,-45 342.2154,-38.9399 354.0668,-33.6613 364.9267,-29.418"/>
<polygon fill="#000000" stroke="#000000" points="366.4068,-32.6012 374.5466,-25.8194 363.9542,-26.0449 366.4068,-32.6012"/>
</g>
<!-- postgres_in -->
<g id="node4" class="node">
<title>postgres_in</title>
<ellipse fill="none" stroke="#000000" cx="66.9441" cy="-180" rx="66.8882" ry="18"/>
<text text-anchor="middle" x="66.9441" y="-176.3" font-family="Times,serif" font-size="14.00" fill="#000000">PostgreSQL</text>
</g>
<!-- postgres_in&#45;&gt;dbcrossbar -->
<g id="edge3" class="edge">
<title>postgres_in&#45;&gt;dbcrossbar</title>
<path fill="none" stroke="#000000" d="M109.6902,-166.0937C131.6272,-158.957 158.5143,-150.21 181.571,-142.7091"/>
<polygon fill="#000000" stroke="#000000" points="182.7656,-146.0011 191.1923,-139.5791 180.6,-139.3445 182.7656,-146.0011"/>
</g>
<!-- bigquery_in -->
<g id="node6" class="node">
<title>bigquery_in</title>
<ellipse fill="none" stroke="#000000" cx="66.9441" cy="-126" rx="55.4913" ry="18"/>
<text text-anchor="middle" x="66.9441" y="-122.3" font-family="Times,serif" font-size="14.00" fill="#000000">BigQuery</text>
</g>
<!-- bigquery_in&#45;&gt;dbcrossbar -->
<g id="edge5" class="edge">
<title>bigquery_in&#45;&gt;dbcrossbar</title>
<path fill="none" stroke="#000000" d="M122.2158,-126C134.2711,-126 147.2081,-126 159.8351,-126"/>
<polygon fill="#000000" stroke="#000000" points="159.8725,-129.5001 169.8724,-126 159.8724,-122.5001 159.8725,-129.5001"/>
</g>
<!-- s3_in -->
<g id="node8" class="node">
<title>s3_in</title>
<ellipse fill="none" stroke="#000000" cx="66.9441" cy="-72" rx="27" ry="18"/>
<text text-anchor="middle" x="66.9441" y="-68.3" font-family="Times,serif" font-size="14.00" fill="#000000">S3</text>
</g>
<!-- s3_in&#45;&gt;dbcrossbar -->
<g id="edge7" class="edge">
<title>s3_in&#45;&gt;dbcrossbar</title>
<path fill="none" stroke="#000000" d="M91.4362,-79.9679C115.0135,-87.6381 151.407,-99.4778 181.3801,-109.2288"/>
<polygon fill="#000000" stroke="#000000" points="180.6787,-112.6811 191.2709,-112.4465 182.8443,-106.0245 180.6787,-112.6811"/>
</g>
<!-- etc_in -->
<g id="node10" class="node">
<title>etc_in</title>
<ellipse fill="none" stroke="#000000" cx="66.9441" cy="-18" rx="27" ry="18"/>
<text text-anchor="middle" x="66.9441" y="-14.3" font-family="Times,serif" font-size="14.00" fill="#000000">...</text>
</g>
<!-- etc_in&#45;&gt;dbcrossbar -->
<g id="edge9" class="edge">
<title>etc_in&#45;&gt;dbcrossbar</title>
<path fill="none" stroke="#000000" d="M91.3184,-25.8194C104.3912,-30.5027 120.5155,-37.0848 133.8881,-45 161.1056,-61.1099 188.6857,-84.3562 207.8055,-101.8172"/>
<polygon fill="#000000" stroke="#000000" points="205.4891,-104.4424 215.2035,-108.6711 210.2465,-99.3074 205.4891,-104.4424"/>
</g>
</g>
</svg>
