<?xml version="1.0" encoding="UTF-8" standalone="no"?>
<!DOCTYPE svg PUBLIC "-//W3C//DTD SVG 1.1//EN"
 "http://www.w3.org/Graphics/SVG/1.1/DTD/svg11.dtd">
<!-- Generated by graphviz version 2.40.1 (20161225.0304)
 -->
<!-- Title: %3 Pages: 1 -->
<svg width="424pt" height="368pt"
 viewBox="0.00 0.00 424.47 368.00" xmlns="http://www.w3.org/2000/svg" xmlns:xlink="http://www.w3.org/1999/xlink">
<g id="graph0" class="graph" transform="scale(1 1) rotate(0) translate(4 364)">
<title>%3</title>
<polygon fill="#ffffff" stroke="transparent" points="-4,4 -4,-364 420.4694,-364 420.4694,4 -4,4"/>
<!-- csv_in -->
<g id="node1" class="node">
<title>csv_in</title>
<ellipse fill="none" stroke="#000000" cx="61.7445" cy="-342" rx="27.8951" ry="18"/>
<text text-anchor="middle" x="61.7445" y="-338.3" font-family="Times,serif" font-size="14.00" fill="#000000">CSV</text>
</g>
<!-- dbcrossbar -->
<g id="node3" class="node">
<title>dbcrossbar</title>
<ellipse fill="none" stroke="#000000" cx="208.2347" cy="-180" rx="48.9926" ry="18"/>
<text text-anchor="middle" x="208.2347" y="-176.3" font-family="Times,serif" font-size="14.00" fill="#000000">dbcrossbar</text>
</g>
<!-- csv_in&#45;&gt;dbcrossbar -->
<g id="edge1" class="edge">
<title>csv_in&#45;&gt;dbcrossbar</title>
<path fill="none" stroke="#000000" d="M87.415,-334.6669C99.3309,-330.343 113.1191,-323.9354 123.489,-315 158.1449,-285.1383 183.3811,-237.5487 196.9119,-207.579"/>
<polygon fill="#000000" stroke="#000000" points="200.2394,-208.7059 201.0486,-198.142 193.8283,-205.8956 200.2394,-208.7059"/>
</g>
<!-- csv_out -->
<g id="node2" class="node">
<title>csv_out</title>
<ellipse fill="none" stroke="#000000" cx="354.7249" cy="-342" rx="27.8951" ry="18"/>
<text text-anchor="middle" x="354.7249" y="-338.3" font-family="Times,serif" font-size="14.00" fill="#000000">CSV</text>
</g>
<!-- dbcrossbar&#45;&gt;csv_out -->
<g id="edge2" class="edge">
<title>dbcrossbar&#45;&gt;csv_out</title>
<path fill="none" stroke="#000000" d="M215.4209,-198.142C227.5031,-226.5628 254.407,-281.7626 292.9804,-315 300.6768,-321.6317 310.2562,-326.8711 319.5555,-330.8995"/>
<polygon fill="#000000" stroke="#000000" points="318.4685,-334.2336 329.0544,-334.6669 321.0492,-327.7267 318.4685,-334.2336"/>
</g>
<!-- postgres_out -->
<g id="node5" class="node">
<title>postgres_out</title>
<ellipse fill="none" stroke="#000000" cx="354.7249" cy="-288" rx="53.8905" ry="18"/>
<text text-anchor="middle" x="354.7249" y="-284.3" font-family="Times,serif" font-size="14.00" fill="#000000">PostgreSQL</text>
</g>
<!-- dbcrossbar&#45;&gt;postgres_out -->
<g id="edge4" class="edge">
<title>dbcrossbar&#45;&gt;postgres_out</title>
<path fill="none" stroke="#000000" d="M223.0218,-197.3507C238.8909,-215.1423 265.5381,-242.7244 292.9804,-261 297.971,-264.3236 303.4381,-267.3986 308.9907,-270.1912"/>
<polygon fill="#000000" stroke="#000000" points="307.8112,-273.5051 318.3474,-274.6187 310.8053,-267.1777 307.8112,-273.5051"/>
</g>
<!-- bigquery_out -->
<g id="node7" class="node">
<title>bigquery_out</title>
<ellipse fill="none" stroke="#000000" cx="354.7249" cy="-234" rx="45.4919" ry="18"/>
<text text-anchor="middle" x="354.7249" y="-230.3" font-family="Times,serif" font-size="14.00" fill="#000000">BigQuery</text>
</g>
<!-- dbcrossbar&#45;&gt;bigquery_out -->
<g id="edge6" class="edge">
<title>dbcrossbar&#45;&gt;bigquery_out</title>
<path fill="none" stroke="#000000" d="M242.9508,-192.7972C263.5872,-200.4043 289.9278,-210.1141 311.8547,-218.197"/>
<polygon fill="#000000" stroke="#000000" points="310.6729,-221.4915 321.2663,-221.6663 313.0941,-214.9235 310.6729,-221.4915"/>
</g>
<!-- s3_out -->
<g id="node9" class="node">
<title>s3_out</title>
<ellipse fill="none" stroke="#000000" cx="354.7249" cy="-180" rx="27" ry="18"/>
<text text-anchor="middle" x="354.7249" y="-176.3" font-family="Times,serif" font-size="14.00" fill="#000000">S3</text>
</g>
<!-- dbcrossbar&#45;&gt;s3_out -->
<g id="edge8" class="edge">
<title>dbcrossbar&#45;&gt;s3_out</title>
<path fill="none" stroke="#000000" d="M257.0138,-180C276.7258,-180 299.1088,-180 317.474,-180"/>
<polygon fill="#000000" stroke="#000000" points="317.4958,-183.5001 327.4958,-180 317.4958,-176.5001 317.4958,-183.5001"/>
</g>
<!-- gs_out -->
<g id="node11" class="node">
<title>gs_out</title>
<ellipse fill="none" stroke="#000000" cx="354.7249" cy="-126" rx="61.99" ry="18"/>
<text text-anchor="middle" x="354.7249" y="-122.3" font-family="Times,serif" font-size="14.00" fill="#000000">Cloud Storage</text>
</g>
<!-- dbcrossbar&#45;&gt;gs_out -->
<g id="edge10" class="edge">
<title>dbcrossbar&#45;&gt;gs_out</title>
<path fill="none" stroke="#000000" d="M242.9508,-167.2028C262.0143,-160.1755 285.9457,-151.3538 306.7686,-143.6779"/>
<polygon fill="#000000" stroke="#000000" points="308.2241,-146.8717 316.3963,-140.1289 305.8029,-140.3037 308.2241,-146.8717"/>
</g>
<!-- redshift_out -->
<g id="node13" class="node">
<title>redshift_out</title>
<ellipse fill="none" stroke="#000000" cx="354.7249" cy="-72" rx="42.4939" ry="18"/>
<text text-anchor="middle" x="354.7249" y="-68.3" font-family="Times,serif" font-size="14.00" fill="#000000">RedShift</text>
</g>
<!-- dbcrossbar&#45;&gt;redshift_out -->
<g id="edge12" class="edge">
<title>dbcrossbar&#45;&gt;redshift_out</title>
<path fill="none" stroke="#000000" d="M223.0218,-162.6493C238.8909,-144.8577 265.5381,-117.2756 292.9804,-99 299.1396,-94.8982 306.0244,-91.1751 312.9002,-87.8939"/>
<polygon fill="#000000" stroke="#000000" points="314.5246,-91.0009 322.2019,-83.6995 311.6471,-84.6197 314.5246,-91.0009"/>
</g>
<!-- etc_out -->
<g id="node15" class="node">
<title>etc_out</title>
<ellipse fill="none" stroke="#000000" cx="354.7249" cy="-18" rx="27" ry="18"/>
<text text-anchor="middle" x="354.7249" y="-14.3" font-family="Times,serif" font-size="14.00" fill="#000000">...</text>
</g>
<!-- dbcrossbar&#45;&gt;etc_out -->
<g id="edge14" class="edge">
<title>dbcrossbar&#45;&gt;etc_out</title>
<path fill="none" stroke="#000000" d="M215.4209,-161.858C227.5031,-133.4372 254.407,-78.2374 292.9804,-45 300.8908,-38.1839 310.7902,-32.8387 320.3304,-28.7673"/>
<polygon fill="#000000" stroke="#000000" points="321.6281,-32.018 329.6638,-25.1132 319.0761,-25.4998 321.6281,-32.018"/>
</g>
<!-- postgres_in -->
<g id="node4" class="node">
<title>postgres_in</title>
<ellipse fill="none" stroke="#000000" cx="61.7445" cy="-288" rx="53.8905" ry="18"/>
<text text-anchor="middle" x="61.7445" y="-284.3" font-family="Times,serif" font-size="14.00" fill="#000000">PostgreSQL</text>
</g>
<!-- postgres_in&#45;&gt;dbcrossbar -->
<g id="edge3" class="edge">
<title>postgres_in&#45;&gt;dbcrossbar</title>
<path fill="none" stroke="#000000" d="M98.1221,-274.6187C106.7477,-270.7703 115.6988,-266.188 123.489,-261 147.2867,-245.1516 170.4864,-222.3046 186.5778,-204.9129"/>
<polygon fill="#000000" stroke="#000000" points="189.3141,-207.1059 193.4476,-197.3507 184.1328,-202.3991 189.3141,-207.1059"/>
</g>
<!-- bigquery_in -->
<g id="node6" class="node">
<title>bigquery_in</title>
<ellipse fill="none" stroke="#000000" cx="61.7445" cy="-234" rx="45.4919" ry="18"/>
<text text-anchor="middle" x="61.7445" y="-230.3" font-family="Times,serif" font-size="14.00" fill="#000000">BigQuery</text>
</g>
<!-- bigquery_in&#45;&gt;dbcrossbar -->
<g id="edge5" class="edge">
<title>bigquery_in&#45;&gt;dbcrossbar</title>
<path fill="none" stroke="#000000" d="M95.3523,-221.6113C115.7345,-214.0979 141.9766,-204.4244 164.0286,-196.2955"/>
<polygon fill="#000000" stroke="#000000" points="165.3384,-199.543 173.5106,-192.8002 162.9172,-192.975 165.3384,-199.543"/>
</g>
<!-- s3_in -->
<g id="node8" class="node">
<title>s3_in</title>
<ellipse fill="none" stroke="#000000" cx="61.7445" cy="-180" rx="27" ry="18"/>
<text text-anchor="middle" x="61.7445" y="-176.3" font-family="Times,serif" font-size="14.00" fill="#000000">S3</text>
</g>
<!-- s3_in&#45;&gt;dbcrossbar -->
<g id="edge7" class="edge">
<title>s3_in&#45;&gt;dbcrossbar</title>
<path fill="none" stroke="#000000" d="M88.9549,-180C105.8782,-180 128.3153,-180 149.1604,-180"/>
<polygon fill="#000000" stroke="#000000" points="149.2345,-183.5001 159.2344,-180 149.2344,-176.5001 149.2345,-183.5001"/>
</g>
<!-- gs_in -->
<g id="node10" class="node">
<title>gs_in</title>
<ellipse fill="none" stroke="#000000" cx="61.7445" cy="-126" rx="61.99" ry="18"/>
<text text-anchor="middle" x="61.7445" y="-122.3" font-family="Times,serif" font-size="14.00" fill="#000000">Cloud Storage</text>
</g>
<!-- gs_in&#45;&gt;dbcrossbar -->
<g id="edge9" class="edge">
<title>gs_in&#45;&gt;dbcrossbar</title>
<path fill="none" stroke="#000000" d="M100.2331,-140.1879C119.7568,-147.3848 143.5696,-156.1628 163.8622,-163.6432"/>
<polygon fill="#000000" stroke="#000000" points="162.9136,-167.0237 173.507,-167.1985 165.3347,-160.4557 162.9136,-167.0237"/>
</g>
<!-- redshift_in -->
<g id="node12" class="node">
<title>redshift_in</title>
<ellipse fill="none" stroke="#000000" cx="61.7445" cy="-72" rx="42.4939" ry="18"/>
<text text-anchor="middle" x="61.7445" y="-68.3" font-family="Times,serif" font-size="14.00" fill="#000000">RedShift</text>
</g>
<!-- redshift_in&#45;&gt;dbcrossbar -->
<g id="edge11" class="edge">
<title>redshift_in&#45;&gt;dbcrossbar</title>
<path fill="none" stroke="#000000" d="M94.2675,-83.6995C104.0363,-87.8687 114.5302,-93.0338 123.489,-99 147.2867,-114.8484 170.4864,-137.6954 186.5778,-155.0871"/>
<polygon fill="#000000" stroke="#000000" points="184.1328,-157.6009 193.4476,-162.6493 189.3141,-152.8941 184.1328,-157.6009"/>
</g>
<!-- etc_in -->
<g id="node14" class="node">
<title>etc_in</title>
<ellipse fill="none" stroke="#000000" cx="61.7445" cy="-18" rx="27" ry="18"/>
<text text-anchor="middle" x="61.7445" y="-14.3" font-family="Times,serif" font-size="14.00" fill="#000000">...</text>
</g>
<!-- etc_in&#45;&gt;dbcrossbar -->
<g id="edge13" class="edge">
<title>etc_in&#45;&gt;dbcrossbar</title>
<path fill="none" stroke="#000000" d="M86.8056,-25.1132C98.8585,-29.4387 112.9419,-35.9119 123.489,-45 158.1449,-74.8617 183.3811,-122.4513 196.9119,-152.421"/>
<polygon fill="#000000" stroke="#000000" points="193.8283,-154.1044 201.0486,-161.858 200.2394,-151.2941 193.8283,-154.1044"/>
</g>
</g>
</svg>
